<mxfile host="65bd71144e">
    <diagram id="TnwJWK0aZxUFpSA-WjgH" name="Страница 1">
        <mxGraphModel dx="1197" dy="782" grid="1" gridSize="10" guides="1" tooltips="1" connect="1" arrows="1" fold="1" page="1" pageScale="1" pageWidth="850" pageHeight="1100" math="0" shadow="0">
            <root>
                <mxCell id="0"/>
                <mxCell id="1" parent="0"/>
                <mxCell id="2" value="вычислитель&#10;" style="swimlane;" vertex="1" parent="1">
                    <mxGeometry x="320" y="240" width="120" height="100" as="geometry"/>
                </mxCell>
            </root>
        </mxGraphModel>
    </diagram>
</mxfile>